<?xml version="1.0" encoding="utf-8"?>
<!-- Generator: Adobe Illustrator 24.2.3, SVG Export Plug-In . SVG Version: 6.00 Build 0)  -->
<svg version="1.1" id="레이어_1" xmlns="http://www.w3.org/2000/svg" xmlns:xlink="http://www.w3.org/1999/xlink" x="0px"
	 y="0px" viewBox="0 0 85 22" style="enable-background:new 0 0 85 22;" xml:space="preserve">
<style type="text/css">
	.st0{fill:#FFFFFF;}
</style>
<g>
	<path class="st0" d="M67,10.8c-1,0.4-1.7,1.4-1.7,2.5v5.3c0,0.5,0.1,1,0.2,1.6c0.2,0.5,0.3,0.8,0.5,1v0.3h-4.1
		c-0.2,0-0.4-0.1-0.5-0.2s-0.2-0.3-0.2-0.5v-7.5c0-0.9-0.1-1.5-0.2-1.9c-0.3-0.9-1-0.6-1.4-0.3c-0.3,0.2-0.8,0.7-1.1,1.8
		c-0.2,0.7-0.3,1.4-0.3,2.1v3.9c0,1.2,0.3,2,0.7,2.5v0.2h-4.1c-0.2,0-0.4-0.1-0.5-0.2s-0.2-0.3-0.2-0.5V14v-0.1l0,0
		c0-0.2,0-0.3-0.1-0.5c0-0.1-0.1-0.2-0.1-0.4c-0.1-0.3-0.3-0.6-0.5-0.8s-0.5-0.3-0.8-0.4c-0.1,0-0.1-0.1,0-0.1l4.7-1.9
		c0.2-0.1,0.4-0.1,0.6,0c0.2,0.1,0.3,0.3,0.3,0.6v2c0.6-1.8,1.9-2.7,4-2.7c0.6,0,1.3,0.2,1.9,0.5c0.6,0.4,1,0.9,1.2,1.6
		c0.9-1.4,2.2-2.1,4.1-2.1c0.8,0,1.5,0.2,2.2,0.7s1,1.3,1,2.5v5.8c0,0.5,0.1,1,0.2,1.6c0.2,0.5,0.3,0.8,0.5,1v0.2h-4.1
		c-0.2,0-0.4-0.1-0.5-0.2s-0.2-0.3-0.2-0.5v-7.3c0-0.8-0.1-1.4-0.2-1.8C68,10.7,67.5,10.7,67,10.8z"/>
	<path class="st0" d="M6.6,11.9c0-0.8-0.1-1.3-0.3-1.6C6.2,10,5.9,9.8,5.6,9.8c-1.1,0-1.9,0.8-1.9,2.5c0,1.4,0.4,2.6,1,3.8
		c0.7,1.2,1.5,2.1,2.4,2.7C7.2,18.9,7.4,19,7.5,19c0.8,0.5,1.6,0.7,2.4,0.6c0.3,0,0.7-0.1,1-0.3c0.1,0,0.1,0,0.1,0l0,0
		c-1.3,1.5-2.9,2.2-4.6,2.2c-1.9,0-3.5-0.8-4.8-2.3c-0.7-0.9-1.1-1.9-1.2-3c-0.2-2,0.4-3.7,1.7-5C3.3,10,4.7,9.4,6.4,9.4
		c1.3,0,2.3,0.4,3.2,1.1c0.9,0.7,1.3,1.5,1.3,2.4l0,0c0,1.2-0.9,1.8-2.1,1.8c-1.1,0-2-0.9-2.1-1.9C6.6,12.6,6.6,11.9,6.6,11.9z"/>
	<g>
		<path class="st0" d="M83.5,10.9c-0.7-0.8-1.6-1.2-2.3-1.4c-0.7-0.2-1.8-0.2-2.3-0.1c-1.2,0.2-2.2,0.8-3.1,1.7
			c-1.2,1.2-1.8,2.6-1.8,4.3s0.6,3.1,1.8,4.3c1.2,1.2,2.6,1.8,4.3,1.8c1.8,0,3.3-0.7,4.5-2c0-0.1,0.1-0.1,0.1-0.1v-0.1h-0.1
			c-1.8,0.9-3.6-0.4-3.8-0.5l0,0c-1-0.7-2.1-2.1-2.7-3.5c-0.1-0.3-0.3-0.9-0.3-0.9h2.6l0,0h3.7C84.3,14.1,84.8,12.5,83.5,10.9z
			 M78.8,9.9c0.3-0.1,0.7,0,1,0.1c1.4,0.7,1.1,3.5,0.6,3.9h-2.7c-0.2-0.7-0.3-1.4-0.3-2C77.3,10.3,78.3,9.9,78.8,9.9z"/>
	</g>
	<g>
		<path class="st0" d="M50.8,10.9c-0.7-0.8-1.6-1.2-2.3-1.4s-1.8-0.2-2.3-0.1c-1.2,0.2-2.2,0.8-3.1,1.7c-1.2,1.2-1.8,2.6-1.8,4.3
			s0.6,3.1,1.8,4.3s2.6,1.8,4.3,1.8c1.8,0,3.3-0.7,4.5-2c0-0.1,0.1-0.1,0.1-0.1v-0.1h-0.1c-1.8,0.9-3.6-0.4-3.8-0.5l0,0
			c-1-0.7-2.1-2.1-2.7-3.5c-0.1-0.3-0.3-0.9-0.3-0.9h2.6l0,0h3.7C51.5,14.1,52,12.5,50.8,10.9z M45.9,9.9c0.3-0.1,0.7,0,1,0.1
			c1.4,0.7,1.1,3.5,0.6,3.9h-2.7c-0.2-0.7-0.3-1.4-0.3-2C44.5,10.3,45.4,9.9,45.9,9.9z"/>
	</g>
	<path class="st0" d="M38.8,10.9c-0.9-1-2.2-1.6-3.9-1.6c-0.8,0-1.6,0.3-2.3,0.7c-0.1,0-0.1,0-0.1-0.1V1.2c0-0.3-0.1-0.5-0.3-0.6
		s-0.4-0.1-0.6,0l-2.8,1.1l-1,0.5c0,0-2.8,1.1-2.6,3.9c0.1,1.6,1.8,3.7,2.9,6.9c0.4,1.1,0.4,2.4,0.4,2.4v0.9v1.9
		c0,0.4-0.1,0.7-0.3,1.1c-0.2,0.3-0.7,1-1.4,1c-0.6,0-1-0.2-1.2-0.5c-0.4-0.4-0.6-1.4-0.6-2.3v-7.4c0-0.3-0.1-0.5-0.3-0.6
		c-0.2-0.1-0.4-0.1-0.6,0c0,0-4.5,1.8-4.6,1.9l0,0c0,0.1,0.1,0.1,0.1,0.1c0.3,0.1,0.5,0.2,0.7,0.4c0.7,0.6,0.7,1.6,0.7,1.8v3.4v0.2
		c0,0.5-0.1,1-0.3,1.4c-0.2,0.6-0.5,1-0.8,1.3c-0.7,0.6-1.3,0.5-1.7,0.2c-0.4-0.2-0.6-0.6-0.8-1c-0.2-0.5-0.3-1-0.3-1.7v-7.4
		c0-0.3-0.1-0.5-0.3-0.6c-0.2-0.1-0.4-0.1-0.6,0l-4.8,1.9c-0.1,0-0.1,0.1,0,0.2c0.3,0.1,0.5,0.2,0.7,0.4c0.6,0.6,0.7,1.4,0.7,1.7
		v0.1v3.7c0,1.6,0.2,2.4,1.2,3.2c0.1,0.1,0.1,0.1,0.2,0.1c0.1,0.1,0.4,0.3,0.7,0.4c0.5,0.2,1,0.4,1.5,0.4c0.3,0,0.6,0,0.9,0
		c0.7-0.1,2.3-0.4,3.3-2.1l0,0c0,0,0.1-0.2,0.2-0.3c0.2,0.7,0.6,1.3,1,1.7c0.3,0.3,1.2,0.8,2.3,0.8c1.4,0,3-0.4,4-1.7v1
		c0,0.4,0,0.9,0.6,0.7l2.2-0.9c0,0,0,0,0.1,0c0.6,0.3,1.2,0.5,1.7,0.7c0.5,0.1,1,0.2,1.5,0.2c1,0,2-0.2,2.9-0.6s1.6-1.1,2.1-2.1
		s0.7-2.2,0.7-3.7C40.1,13.3,39.6,12,38.8,10.9z M27,7.8c-0.5-1.3-0.3-2.6,0-3c0.2-0.3,0.5-0.6,0.9-0.5c0.3-0.1,0.4,0.2,0.4,0.4v6.5
		C28.1,10.7,27.3,8.6,27,7.8z M36.1,19.1c-0.2,1.3-1.1,2-2.3,1.9c-0.7,0-1.3-0.5-1.4-1.2c-0.1-0.7-0.1-1.4-0.1-2.2v-6.7
		c0-0.2,0.2-0.4,0.4-0.4c1.2,0,2.2,1.4,3,4.1c0.3,1.2,0.5,2.4,0.5,3.4C36.3,18.4,36.3,18.8,36.1,19.1z"/>
</g>
</svg>
